<svg width="34" height="34" viewBox="0 0 34 34" fill="none" xmlns="http://www.w3.org/2000/svg">
<path d="M4.81445 0.166016C4.62852 0.351953 4.59531 0.664062 4.74805 0.823437C4.80117 0.876562 5.71758 1.46094 6.78008 2.125C7.84258 2.7957 8.68594 3.36016 8.65273 3.38672C8.62617 3.41328 7.82266 3.91797 6.87969 4.50898C5.83047 5.16641 5.11992 5.57148 5.06016 5.54492C4.95391 5.50508 1.67344 3.47305 1.57383 3.38672C1.54727 3.36016 1.87266 3.12109 2.3043 2.85547C2.73594 2.58984 3.1543 2.31094 3.24063 2.23789C3.53945 1.96562 3.33359 1.39453 2.93516 1.39453C2.73594 1.39453 0.385156 2.81563 0.179297 3.06133C0.0796875 3.1875 0.0664062 3.41992 0.0664062 5.74414C0.0664062 8.06836 0.0730469 8.30078 0.185938 8.42031C0.332031 8.59297 4.96055 11.4883 5.09336 11.4883C5.14648 11.4883 5.27266 11.4418 5.37891 11.3887C5.85703 11.143 9.94102 8.54648 10.0473 8.42695C10.1535 8.30078 10.1602 8.06836 10.1602 5.71758V3.14102L10.0141 3.0082C9.72188 2.74258 5.25938 0 5.11992 0C5.04023 0 4.90078 0.0730467 4.81445 0.166016ZM2.88867 5.37891C3.73203 5.90352 4.46914 6.375 4.53555 6.42812C4.63516 6.52109 4.64844 6.69375 4.64844 8.2875C4.64844 9.88125 4.6418 10.0406 4.54219 10.0008C4.48242 9.97422 3.67227 9.48945 2.74922 8.91172L1.06914 7.86914L1.0625 6.04961V4.23672L1.21523 4.32969C1.29492 4.38281 2.05195 4.8543 2.88867 5.37891ZM9.16406 6.05625V7.86914L7.45742 8.93164C6.52109 9.51602 5.73086 10.0008 5.69766 10.0141C5.67109 10.0273 5.64453 9.23047 5.64453 8.24766V6.45469L7.39102 5.35898C8.34727 4.75469 9.1375 4.25664 9.15078 4.25664C9.15742 4.25 9.16406 5.0668 9.16406 6.05625Z" fill="white"/>
<path d="M26.5559 1.44765C25.2875 2.23789 24.1918 2.94844 24.1121 3.01484C23.9727 3.14101 23.9727 3.18086 23.9727 5.71094C23.9727 8.06836 23.9793 8.30078 24.0922 8.42695C24.2316 8.59297 28.7273 11.4152 28.9398 11.4684C29.1125 11.5082 29.2719 11.4152 32.1406 9.60898L33.9668 8.46679L33.9867 5.7707C34 3.26719 33.9934 3.06797 33.8871 2.975C33.7609 2.87539 29.4977 0.205857 29.2387 0.0730448C29.159 0.0332012 29.0395 -1.90735e-06 28.973 -1.90735e-06C28.9066 0.00663853 27.8176 0.65078 26.5559 1.44765ZM30.8391 2.23125C32.4328 3.22734 32.5988 3.34687 32.4859 3.42656C32.2137 3.6125 29.2453 5.46523 29.1191 5.525C28.9996 5.57812 28.6875 5.40547 27.2066 4.47578C26.2305 3.86484 25.4469 3.34687 25.4668 3.32695C25.5598 3.22734 28.9266 1.13554 28.9996 1.13554C29.0395 1.1289 29.8695 1.62695 30.8391 2.23125ZM27.2465 5.67109L28.4883 6.44804V8.24765C28.4883 9.23047 28.4617 10.0273 28.4352 10.0141C28.402 10.0008 27.6117 9.51601 26.6754 8.93164L24.9688 7.86914V6.05625V4.25L25.4867 4.56875C25.7656 4.74804 26.5559 5.24609 27.2465 5.67109ZM33.0438 7.80937C33.0172 7.88242 29.8164 9.91445 29.5973 10.0008C29.491 10.0406 29.4844 9.90781 29.4977 8.26094L29.5176 6.47461L31.2773 5.37226L33.0371 4.26992L33.057 6.00312C33.0637 6.95273 33.057 7.76953 33.0438 7.80937Z" fill="white"/>
<path d="M12.2851 5.11328C12.0792 5.31914 12.0859 5.67773 12.2984 5.85703C12.4246 5.96992 12.7499 5.97656 17.0663 5.97656H21.7081L21.841 5.80391C22.0269 5.57148 22.0136 5.3457 21.8144 5.14648L21.655 4.98047H17.0331C12.5042 4.98047 12.4179 4.98047 12.2851 5.11328Z" fill="white"/>
<path d="M9.44962 10.3926C9.27696 10.5121 9.19727 10.8309 9.29024 11.0102C9.38321 11.1895 11.7738 12.75 11.9531 12.75C12.2918 12.75 12.5242 12.4711 12.4512 12.1457C12.4113 11.973 12.2254 11.827 11.143 11.1164C10.4524 10.6648 9.82149 10.293 9.7418 10.293C9.65548 10.293 9.52931 10.3395 9.44962 10.3926Z" fill="white"/>
<path d="M23.0099 11.0965C22.3524 11.5348 21.7747 11.9398 21.7349 11.9996C21.6087 12.1656 21.6286 12.3781 21.788 12.5773C22.0337 12.8895 22.1997 12.8297 23.5743 11.9266C24.929 11.0367 25.002 10.9504 24.8095 10.5719C24.577 10.127 24.3911 10.1801 23.0099 11.0965Z" fill="white"/>
<path d="M14.5364 12.7566C13.2415 13.5602 12.1458 14.2641 12.106 14.3238C11.9798 14.4832 11.9798 19.5168 12.0993 19.6695C12.2587 19.8754 16.8739 22.7109 17.04 22.7109C17.2591 22.7109 17.1794 22.7574 19.6232 21.2367C20.7919 20.5063 21.8278 19.8223 21.9341 19.716L22.1134 19.5234V16.9801C22.1068 15.0078 22.0868 14.4168 22.0204 14.3305C21.9739 14.2707 20.8849 13.5602 19.59 12.75C18.0161 11.7672 17.1861 11.2891 17.0665 11.2891C16.947 11.2891 16.1103 11.7672 14.5364 12.7566ZM18.8861 13.4805C19.8556 14.0848 20.6458 14.5895 20.6458 14.6094C20.6458 14.6293 19.8423 15.1406 18.8595 15.7516L17.0665 16.8672L15.2736 15.7516C14.2907 15.1406 13.4872 14.6293 13.4872 14.6094C13.4872 14.5629 17.0267 12.3582 17.0798 12.3715C17.0997 12.3781 17.9165 12.8762 18.8861 13.4805ZM15.0345 16.7676L16.5286 17.6973L16.5353 19.5102V21.3164L16.0239 20.9977C15.7384 20.8184 14.9482 20.3203 14.2642 19.8953L13.0157 19.1184V17.3188V15.5258L13.2747 15.6785C13.4208 15.7648 14.2111 16.2563 15.0345 16.7676ZM21.1173 17.3254V19.1117L19.3642 20.2141C18.3946 20.8184 17.5911 21.3164 17.5712 21.3164C17.5513 21.3164 17.5314 20.5129 17.5314 19.5367V17.7504L19.3044 16.648C20.2806 16.0371 21.0907 15.5391 21.0974 15.5391C21.1107 15.5391 21.1173 16.3426 21.1173 17.3254Z" fill="white"/>
<path d="M4.93398 13.6133C4.8543 13.6465 4.76133 13.7328 4.72148 13.8059C4.675 13.8922 4.64844 14.9746 4.64844 17.0531V20.1676L4.80117 20.307C5.02031 20.5129 5.33242 20.4996 5.50508 20.2805C5.64453 20.1078 5.64453 20.0414 5.64453 17C5.64453 14.1379 5.63789 13.8856 5.53164 13.7594C5.39219 13.5934 5.1332 13.527 4.93398 13.6133Z" fill="white"/>
<path d="M28.6344 13.6996C28.4883 13.8523 28.4883 13.859 28.4883 16.9934V20.1277L28.6543 20.2871C28.8602 20.4996 29.1125 20.4996 29.3184 20.2871L29.4844 20.1277V17.0133C29.4844 13.9586 29.4844 13.8922 29.3449 13.7195C29.1656 13.4937 28.8336 13.4805 28.6344 13.6996Z" fill="white"/>
<path d="M10.5918 22.3855C9.93439 22.8238 9.35666 23.2289 9.31681 23.2887C9.10431 23.5676 9.35002 24.0391 9.70197 24.0391C9.95431 24.0391 12.3848 22.4652 12.4446 22.2594C12.5508 21.9273 12.2918 21.5754 11.9531 21.5887C11.8602 21.5887 11.2824 21.9273 10.5918 22.3855Z" fill="white"/>
<path d="M21.8676 21.6816C21.6949 21.8012 21.6152 22.1199 21.7082 22.2992C21.8012 22.4785 24.1918 24.0391 24.3711 24.0391C24.5836 24.0391 24.7695 23.9195 24.8359 23.7336C24.9754 23.3684 24.8824 23.2687 23.5609 22.4055C22.8703 21.9539 22.2395 21.582 22.1598 21.582C22.0734 21.582 21.9473 21.6285 21.8676 21.6816Z" fill="white"/>
<path d="M2.64961 23.9727C1.35469 24.7828 0.245703 25.5 0.179297 25.573C0.0730469 25.6992 0.0664062 25.9316 0.0664062 28.2625V30.8059L0.219141 30.9652C0.438281 31.2109 4.95391 34 5.12656 34C5.29258 34 9.78828 31.2109 10.0141 30.9719L10.1602 30.8059V28.2559V25.7059L10.0141 25.5465C9.92773 25.4535 8.87852 24.7695 7.66992 24.0191C5.29258 22.5449 5.23281 22.5117 5.09336 22.5117C5.04688 22.5117 3.94453 23.1691 2.64961 23.9727ZM6.88633 24.7098C7.8293 25.3008 8.62617 25.8055 8.65273 25.832C8.70586 25.8785 5.24609 28.0898 5.11992 28.0898C5.03359 28.0898 1.5207 25.8852 1.55391 25.852C1.62031 25.7855 5.08008 23.6406 5.11992 23.6406C5.14648 23.6406 5.94336 24.1254 6.88633 24.7098ZM4.63516 30.7727C4.64844 32.227 4.63516 32.5457 4.56211 32.5258C4.51562 32.5125 3.70547 32.0277 2.76914 31.4434L1.0625 30.3809V28.5746V26.7684L2.84219 27.8773L4.61523 28.993L4.63516 30.7727ZM9.16406 28.6012V30.3809L7.44414 31.4566C6.49453 32.0543 5.7043 32.5391 5.68438 32.5391C5.66445 32.5391 5.64453 31.7355 5.64453 30.7594V28.9797L7.35781 27.9039C8.29414 27.3129 9.08438 26.8348 9.11758 26.8281C9.14414 26.8281 9.16406 27.625 9.16406 28.6012Z" fill="white"/>
<path d="M28.7871 22.5914C28.1363 22.95 24.2383 25.4203 24.1254 25.5465L23.9727 25.7059V28.2824V30.859L24.1254 30.9918C24.3977 31.2441 28.8734 34 29.0062 34C29.0727 34 29.2121 33.9402 29.3117 33.8605L29.4844 33.7277L29.4977 31.357L29.5176 28.993L31.2441 27.9105C32.1938 27.3129 32.9906 26.8281 33.0238 26.8281C33.0504 26.8281 33.0703 27.625 33.0703 28.6012V30.3809L32.1605 30.9453C31.6625 31.2508 31.1777 31.5695 31.0914 31.6426C30.8922 31.8152 30.8723 32.1539 31.0516 32.3465C31.2773 32.5988 31.5164 32.5125 32.6852 31.7887C33.2961 31.4102 33.8406 31.0648 33.8938 31.0117C33.9867 30.9387 34 30.6133 33.9867 28.2293L33.9668 25.5332L31.5496 24.0191C30.2215 23.1891 29.0859 22.5117 29.0262 22.5117C28.9664 22.5117 28.8602 22.5516 28.7871 22.5914ZM30.8723 24.7762C31.8285 25.3672 32.5855 25.8785 32.559 25.9051C32.4395 26.0113 29.0727 28.0898 29.0129 28.0898C28.9066 28.0898 25.427 25.8852 25.4668 25.8453C25.6461 25.666 28.9465 23.6539 29.0328 23.6672C29.0926 23.6805 29.9227 24.1785 30.8723 24.7762ZM26.7684 27.9039L28.4883 28.9797V30.7594C28.4883 31.7355 28.4684 32.5391 28.4484 32.5391C28.4219 32.5391 27.6316 32.0543 26.6887 31.4633L24.9688 30.3809V28.6012C24.9688 27.625 24.9887 26.8281 25.0086 26.8281C25.0285 26.8281 25.8254 27.3129 26.7684 27.9039Z" fill="white"/>
<path d="M12.3183 28.1895C12.119 28.3887 12.1058 28.6145 12.2917 28.8469L12.4245 29.0195H17.073C21.6284 29.0195 21.7148 29.0195 21.8476 28.8867C21.9273 28.807 21.9804 28.6676 21.9804 28.5215C21.9804 28.3754 21.9273 28.2359 21.8476 28.1562C21.7148 28.0234 21.6284 28.0234 17.0995 28.0234H12.4776L12.3183 28.1895Z" fill="white"/>
</svg>
