<svg width="34" height="34" viewBox="0 0 34 34" fill="none" xmlns="http://www.w3.org/2000/svg">
<path d="M12.5242 7.80274C10.0539 12.1059 8.03512 15.6254 8.04841 15.6387C8.07497 15.6719 16.8738 19.8355 16.9668 19.8687C17.0531 19.8953 26.0312 15.6586 25.998 15.6055C25.9914 15.5855 23.9925 12.1191 21.5687 7.90234C19.1382 3.68555 17.1261 0.179298 17.0863 0.112892C17.0332 0.0132828 16.2097 1.40781 12.5242 7.80274ZM19.5898 8.48008C20.9777 10.8773 22.1 12.8563 22.0867 12.8629C22.0734 12.8762 20.9312 12.3449 19.5433 11.6875L17.0199 10.4922L14.5031 11.6809C13.1218 12.3383 11.9797 12.8629 11.9664 12.8496C11.9465 12.8297 16.575 4.72149 16.9136 4.19688C16.9668 4.11055 17.0265 4.05742 17.0465 4.0707C17.0664 4.09063 18.2086 6.07617 19.5898 8.48008ZM21.3297 14.7488C21.8277 14.9812 22.2195 15.1937 22.1929 15.2203C22.1332 15.2801 17.0797 17.6641 17.0199 17.6641C16.9336 17.6641 11.8269 15.2402 11.8203 15.2004C11.8203 15.1805 12.989 14.6094 14.4234 13.932L17.0265 12.7035L18.7199 13.5137C19.6562 13.952 20.8316 14.5098 21.3297 14.7488Z" fill="white"/>
<path d="M12.3382 25.832C14.8816 30.2879 16.9933 33.9203 17.0199 33.9137C17.0796 33.8938 26.3167 17.7902 26.2835 17.7637C26.2703 17.757 24.205 18.7332 21.6816 19.9285C19.1648 21.1305 17.0664 22.1133 17.0199 22.1133C16.9734 22.1133 15.0144 21.1969 12.6703 20.0812C10.3195 18.959 8.24761 17.9762 8.05503 17.8898L7.70972 17.7371L12.3382 25.832ZM15.1339 23.468L17.0132 24.3645L19.1781 23.3352C20.3667 22.7707 21.3429 22.3191 21.3562 22.3324C21.3695 22.3457 20.4 24.059 19.2113 26.1508C18.016 28.2359 17.0132 29.9227 16.9867 29.8961C16.9335 29.8363 12.75 22.5316 12.7035 22.3988C12.657 22.2859 12.7433 22.3258 15.1339 23.468Z" fill="white"/>
</svg>
