<svg width="29" height="29" viewBox="0 0 29 29" fill="none" xmlns="http://www.w3.org/2000/svg">
<path d="M10.4841 0.0623035C6.76284 0.481443 3.57963 2.50918 1.67651 5.66406C0.894866 6.96113 0.413421 8.28652 0.130218 9.88379C-0.0170476 10.7391 -5.53988e-05 12.7158 0.158538 13.5937C0.838226 17.315 3.03588 20.317 6.31537 22.0162C8.07123 22.9225 9.66283 23.3076 11.6679 23.302C14.1091 23.302 16.1142 22.6959 18.1533 21.3478L18.8273 20.9004L22.7695 24.8256C25.4259 27.4764 26.7796 28.7904 26.9326 28.8641C27.2384 29.0057 27.8785 29.0057 28.1503 28.8641C28.83 28.5072 29.1415 27.7709 28.915 27.0686C28.8187 26.7797 28.6091 26.5531 24.8538 22.7922L20.8947 18.8217L21.3308 18.176C23.4322 15.0721 23.8966 11.1865 22.5882 7.58984C22.1634 6.41172 21.3478 5.04101 20.4642 4.01582C18.9915 2.3166 16.9072 0.996874 14.7718 0.424803C13.4691 0.0736313 11.7019 -0.079298 10.4841 0.0623035ZM12.5062 2.95098C14.6585 3.1832 16.3408 3.98183 17.8474 5.48847C19.3824 7.02344 20.198 8.76797 20.4019 10.943C20.5831 12.8857 20.0621 14.8682 18.9122 16.5957C18.4365 17.315 17.315 18.4365 16.5956 18.9123C13.6956 20.8437 10.1216 20.9457 7.17065 19.1785C5.04096 17.9098 3.53998 15.7687 3.04721 13.2936C2.86596 12.3873 2.86596 10.9486 3.04721 10.0424C3.55698 7.48789 5.12592 5.31289 7.39155 4.02715C8.90385 3.16621 10.8126 2.76406 12.5062 2.95098Z" fill="black"/>
</svg>
