<svg width="34" height="34" viewBox="0 0 34 34" fill="none" xmlns="http://www.w3.org/2000/svg">
<path d="M15.8046 1.10234C14.7421 1.22187 14.2773 1.29492 13.6132 1.44102C7.63667 2.74922 2.98159 7.28477 1.52729 13.2281C1.18198 14.6293 1.10229 15.3664 1.10229 17C1.10229 19.0188 1.33472 20.4531 1.95894 22.2395C3.9312 27.884 8.72573 31.8352 14.7554 32.7781C15.798 32.9441 18.1953 32.9441 19.2378 32.7848C22.7375 32.2336 25.832 30.6797 28.2558 28.2559C30.7328 25.7789 32.3265 22.5449 32.8179 18.9922C32.9441 18.0559 32.9242 15.6918 32.7781 14.7555C32.2933 11.6344 31.0648 8.93164 29.066 6.60078C26.5824 3.69883 23.2023 1.84609 19.2777 1.22852C18.6601 1.12891 16.3027 1.04258 15.8046 1.10234ZM19.1914 2.29102C25.0683 3.1875 29.8828 7.50391 31.3703 13.2148C31.7421 14.6359 31.8417 15.4395 31.8351 17.0332C31.8351 18.5938 31.7488 19.291 31.3769 20.7586C30.746 23.2156 29.491 25.4535 27.698 27.3129C25.8917 29.1855 23.6804 30.5336 21.2566 31.2441C19.6496 31.7156 18.7398 31.8418 16.9667 31.8352C15.3132 31.8285 14.4832 31.7223 12.9957 31.3172C8.04175 29.9492 4.05073 25.9582 2.68276 21.0043C2.27104 19.5035 2.16479 18.6867 2.16479 17.0332C2.15815 15.2934 2.28433 14.377 2.73589 12.8164C4.17026 7.83594 8.30737 3.83828 13.3343 2.59649C14.0316 2.41719 15.0542 2.23789 15.7714 2.16484C16.3226 2.10508 18.5207 2.19141 19.1914 2.29102Z" fill="white"/>
<path d="M15.5787 3.26055C10.1732 3.83164 5.57793 7.53047 3.89121 12.6836C2.75567 16.1434 3.01465 19.8156 4.61504 23.0762C7.39746 28.7539 13.633 31.7953 19.8287 30.5137C23.926 29.6637 27.4455 26.9344 29.358 23.1293C32.2467 17.3918 30.6928 10.2996 25.6658 6.24883C22.8635 3.99101 19.1248 2.88867 15.5787 3.26055ZM18.4607 4.34961C24.3643 5.05351 28.9463 9.63554 29.6502 15.5391C30.1549 19.7691 28.4682 24.0125 25.201 26.7484C23.4279 28.2359 21.4158 29.159 18.992 29.5973C18.1088 29.7566 15.8908 29.7566 15.0076 29.5973C13.6397 29.3449 12.6967 29.0461 11.5014 28.4816C8.8584 27.2332 6.78653 25.1613 5.51153 22.4984C4.95371 21.3297 4.65489 20.3867 4.40254 18.9922C4.24317 18.109 4.24317 15.891 4.40254 15.0078C4.66153 13.6066 4.95371 12.6703 5.51817 11.4949C6.78653 8.84531 8.84512 6.78672 11.4947 5.51836C12.949 4.82109 14.0713 4.50898 15.9041 4.29648C16.4221 4.23008 17.7104 4.25664 18.4607 4.34961Z" fill="white"/>
<path d="M11.9397 10.1734C11.8799 10.2199 11.2026 11.0168 10.4323 11.9398C8.91157 13.7727 8.86508 13.8523 9.19712 14.1777L9.35649 14.3438H15.6651H21.9737L22.1331 14.191C22.226 14.1113 22.8967 13.3211 23.6338 12.4312C25.0881 10.6781 25.1346 10.5852 24.8026 10.2598L24.6432 10.0938H18.3413C13.4073 10.0938 12.0194 10.1137 11.9397 10.1734ZM22.4319 12.2188L21.5487 13.2746L16.1167 13.2812H10.6846L11.5678 12.2254L12.451 11.1629H17.8831L23.3085 11.1562L22.4319 12.2188Z" fill="white"/>
<path d="M9.19712 15.041C8.86508 15.3664 8.91157 15.4461 10.4323 17.2789C11.2026 18.202 11.8799 18.9988 11.9397 19.0387C12.0194 19.1051 13.4073 19.125 18.3413 19.125H24.6432L24.8026 18.959C25.1346 18.6336 25.0881 18.5406 23.6338 16.7875C22.8967 15.8977 22.226 15.1074 22.1331 15.0211L21.9737 14.875H15.6651H9.35649L9.19712 15.041ZM22.4319 17L23.3085 18.0625H17.8831L12.451 18.0559L11.5678 17L10.6913 15.9375H16.1167L21.5487 15.9441L22.4319 17Z" fill="white"/>
<path d="M11.9397 19.7359C11.8799 19.7824 11.2026 20.5793 10.4323 21.5023C8.91157 23.3352 8.86508 23.4148 9.19712 23.7402L9.35649 23.9062H15.6651H21.9737L22.1331 23.7535C22.226 23.6738 22.8967 22.8836 23.6338 21.9937C25.0881 20.2406 25.1346 20.1477 24.8026 19.8223L24.6432 19.6562H18.3413C13.4073 19.6562 12.0194 19.6762 11.9397 19.7359ZM22.4319 21.7812L21.5487 22.8371L16.1167 22.8438H10.6846L11.5678 21.7879L12.451 20.7254H17.8831L23.3085 20.7188L22.4319 21.7812Z" fill="white"/>
</svg>
